<svg width="22" height="22" viewBox="0 0 22 22" fill="none" xmlns="http://www.w3.org/2000/svg">
<g clip-path="url(#clip0_10_23)" filter="url(#filter0_d_10_23)">
<path d="M16.6 0H5.4C4.63 0 4 0.63 4 1.4V12.6C4 13.37 4.63 14 5.4 14H16.6C17.37 14 18 13.37 18 12.6V1.4C18 0.63 17.37 0 16.6 0ZM8.2 11.9H6.1V5.6H8.2V11.9ZM7.15 4.41C6.45 4.41 5.89 3.85 5.89 3.15C5.89 2.45 6.45 1.89 7.15 1.89C7.85 1.89 8.41 2.45 8.41 3.15C8.41 3.85 7.85 4.41 7.15 4.41ZM15.9 11.9H13.8V8.19C13.8 7.63003 13.31 7.14 12.75 7.14C12.19 7.14 11.7 7.63003 11.7 8.19V11.9H9.6V5.6H11.7V6.44C12.05 5.88 12.82 5.46 13.45 5.46C14.78 5.46 15.9 6.58 15.9 7.91V11.9Z" fill="white"/>
</g>
<defs>
<filter id="filter0_d_10_23" x="0" y="0" width="22" height="22" filterUnits="userSpaceOnUse" color-interpolation-filters="sRGB">
<feFlood flood-opacity="0" result="BackgroundImageFix"/>
<feColorMatrix in="SourceAlpha" type="matrix" values="0 0 0 0 0 0 0 0 0 0 0 0 0 0 0 0 0 0 127 0" result="hardAlpha"/>
<feOffset dy="4"/>
<feGaussianBlur stdDeviation="2"/>
<feComposite in2="hardAlpha" operator="out"/>
<feColorMatrix type="matrix" values="0 0 0 0 0 0 0 0 0 0 0 0 0 0 0 0 0 0 0.25 0"/>
<feBlend mode="normal" in2="BackgroundImageFix" result="effect1_dropShadow_10_23"/>
<feBlend mode="normal" in="SourceGraphic" in2="effect1_dropShadow_10_23" result="shape"/>
</filter>
<clipPath id="clip0_10_23">
<rect width="14" height="14" fill="white" transform="translate(4)"/>
</clipPath>
</defs>
</svg>
